<svg xmlns="http://www.w3.org/2000/svg" xmlns:xlink="http://www.w3.org/1999/xlink" width="47.739" height="60.231" viewBox="0 0 47.739 60.231">
  <defs>
    <filter id="Path_6" x="0" y="0" width="47.739" height="60.231" filterUnits="userSpaceOnUse">
      <feOffset dy="3" input="SourceAlpha"/>
      <feGaussianBlur stdDeviation="3" result="blur"/>
      <feFlood flood-opacity="0.161"/>
      <feComposite operator="in" in2="blur"/>
      <feComposite in="SourceGraphic"/>
    </filter>
    <filter id="Path_7" x="13.471" y="11.56" width="20.797" height="25.691" filterUnits="userSpaceOnUse">
      <feOffset dy="3" input="SourceAlpha"/>
      <feGaussianBlur stdDeviation="3" result="blur-2"/>
      <feFlood flood-opacity="0.161"/>
      <feComposite operator="in" in2="blur-2"/>
      <feComposite in="SourceGraphic"/>
    </filter>
  </defs>
  <g id="_711160" data-name="711160" transform="translate(-66.726 6)">
    <g id="Group_4" data-name="Group 4" transform="translate(75.726)">
      <g id="Group_3" data-name="Group 3" transform="translate(0)">
        <g transform="matrix(1, 0, 0, 1, -9, -6)" filter="url(#Path_6)">
          <path id="Path_6-2" data-name="Path 6" d="M90.6,0A15,15,0,0,0,75.726,15.1V27.129a14.871,14.871,0,1,0,29.739.046V15.1A15,15,0,0,0,90.6,0Zm12.073,27.175a12.074,12.074,0,1,1-24.145-.047V15.1a12.075,12.075,0,1,1,24.145,0Z" transform="translate(-66.73 6)" fill="#202020"/>
        </g>
      </g>
    </g>
    <g id="Group_6" data-name="Group 6" transform="translate(89.197 11.56)">
      <g id="Group_5" data-name="Group 5">
        <g transform="matrix(1, 0, 0, 1, -22.47, -17.56)" filter="url(#Path_7)">
          <path id="Path_7-2" data-name="Path 7" d="M240.444,140.15a1.4,1.4,0,0,0-1.4,1.4v4.894a1.4,1.4,0,1,0,2.8,0v-4.894A1.4,1.4,0,0,0,240.444,140.15Z" transform="translate(-216.58 -122.59)" fill="#202020"/>
        </g>
      </g>
    </g>
  </g>
</svg>

