<svg xmlns="http://www.w3.org/2000/svg" xmlns:xlink="http://www.w3.org/1999/xlink" width="251.637" height="280.536" viewBox="0 0 251.637 280.536">
  <defs>
    <filter id="Path_13" x="0" y="0" width="251.637" height="40.387" filterUnits="userSpaceOnUse">
      <feOffset dy="3" input="SourceAlpha"/>
      <feGaussianBlur stdDeviation="3" result="blur"/>
      <feFlood flood-opacity="0.161"/>
      <feComposite operator="in" in2="blur"/>
      <feComposite in="SourceGraphic"/>
    </filter>
    <filter id="Path_14" x="9.165" y="37.067" width="233.308" height="73.334" filterUnits="userSpaceOnUse">
      <feOffset dy="3" input="SourceAlpha"/>
      <feGaussianBlur stdDeviation="3" result="blur-2"/>
      <feFlood flood-opacity="0.161"/>
      <feComposite operator="in" in2="blur-2"/>
      <feComposite in="SourceGraphic"/>
    </filter>
    <filter id="Path_15" x="26.049" y="110.406" width="56.559" height="170.13" filterUnits="userSpaceOnUse">
      <feOffset dy="3" input="SourceAlpha"/>
      <feGaussianBlur stdDeviation="3" result="blur-3"/>
      <feFlood flood-opacity="0.161"/>
      <feComposite operator="in" in2="blur-3"/>
      <feComposite in="SourceGraphic"/>
    </filter>
    <filter id="Path_16" x="169.028" y="110.406" width="56.559" height="170.13" filterUnits="userSpaceOnUse">
      <feOffset dy="3" input="SourceAlpha"/>
      <feGaussianBlur stdDeviation="3" result="blur-4"/>
      <feFlood flood-opacity="0.161"/>
      <feComposite operator="in" in2="blur-4"/>
      <feComposite in="SourceGraphic"/>
    </filter>
  </defs>
  <g id="tori" transform="translate(-19.695 43.609)">
    <g id="Group_8" data-name="Group 8" transform="translate(4 -37.609)">
      <g transform="matrix(1, 0, 0, 1, 15.7, -6)" filter="url(#Path_13)">
        <path id="Path_13-2" data-name="Path 13" d="M141.513,4.833C103.6,4.833,64.348,3.206,24.7,0V17.495c39.665,3.247,78.926,4.892,116.818,4.892s77.153-1.644,116.818-4.892V0c-39.653,3.206-78.909,4.833-116.818,4.833Z" transform="translate(-15.7 6)" fill="#4100ff"/>
      </g>
      <g transform="matrix(1, 0, 0, 1, 15.7, -6)" filter="url(#Path_14)">
        <path id="Path_14-2" data-name="Path 14" d="M237.423,63.35q-8.786.562-17.524,1l2.627,36.78H156.788V66.188H139.235V101.13H73.5l2.627-36.78q-8.742-.439-17.524-1l-2.7,37.78H40.358v17.553H255.666V101.13h-15.54Z" transform="translate(-22.19 -20.28)" fill="#4100ff"/>
      </g>
      <g transform="matrix(1, 0, 0, 1, 15.7, -6)" filter="url(#Path_15)">
        <path id="Path_15-2" data-name="Path 15" d="M69.215,340.82H86.6l21.175-152.13H90.39Z" transform="translate(-34.17 -72.28)" fill="#4100ff"/>
      </g>
      <g transform="matrix(1, 0, 0, 1, 15.7, -6)" filter="url(#Path_16)">
        <path id="Path_16-2" data-name="Path 16" d="M313.575,188.69,334.75,340.82h17.384L330.959,188.69Z" transform="translate(-135.55 -72.28)" fill="#4100ff"/>
      </g>
    </g>
  </g>
</svg>
